<svg id="Layer_1" data-name="Layer 1" xmlns="http://www.w3.org/2000/svg" viewBox="0 0 1000 178.36"><defs><style>.cls-1{fill:#fff}</style></defs><path class="cls-1" d="M661.3 106l1.44-2.1q31.86-48.25 63.7-96.51a22.83 22.83 0 011.64-2.26 7 7 0 015.78-2.61c4.13.11 8.26 0 12.4 0a14.25 14.25 0 011.6 0c2.65.25 3.61 1.28 3.69 4v165.8c-.15 2-1 3-3.06 3.3a12 12 0 01-2 .12h-17.8c-4.13 0-5.07-1-5.07-5.05V57.74l-.36-.13c-.38.51-.78 1-1.12 1.51q-27 41.07-53.92 82.14a27.79 27.79 0 01-2.34 3.24 6.05 6.05 0 01-9.26-.17c-.55-.67-1-1.39-1.51-2.11l-54-82.31a8 8 0 00-1.94-2.2c0 .75-.05 1.5-.05 2.25v112.02c-.13 2.44-1.11 3.45-3.55 3.71a13.22 13.22 0 01-1.4.06h-18a14.53 14.53 0 01-2.38-.22 2.88 2.88 0 01-2.53-2.7 19 19 0 01-.09-2.39V7.1c0-3.37 1.07-4.48 4.4-4.51 4.67-.06 9.33 0 14 0a5.55 5.55 0 014 1.55A19.1 19.1 0 01596 7.16q31.8 48.17 63.56 96.35c.54.77 1.07 1.49 1.74 2.49zM945.73 0a110.78 110.78 0 0142.07 8.49c2.55 1 3.79 2.71 3.76 5.46v16.37a9.55 9.55 0 01-.07 1.2c-.28 1.81-1.24 2.45-3 1.78-2.23-.87-4.38-1.93-6.6-2.84a92.31 92.31 0 00-38.62-7.11 61.29 61.29 0 00-17.11 2.72 26.47 26.47 0 00-9.25 4.93c-5.33 4.61-7.29 10.49-6.2 17.37a14 14 0 004.41 7.67 35 35 0 007.73 5.62c6.59 3.7 13.64 6.35 20.63 9.11a256.27 256.27 0 0124.37 10.55c7.07 3.68 13.72 8 19.33 13.68a43.52 43.52 0 0112.82 30.35 54.08 54.08 0 01-3.72 22.47c-4.07 9.86-11.19 16.86-20.58 21.72a75.55 75.55 0 01-22.38 7.06 127.78 127.78 0 01-28.7 1.54c-13.18-.76-26-3.2-38.26-8.39-1-.41-1.92-.9-2.89-1.36a4.83 4.83 0 01-3-4.6c0-6.39-.06-12.78.08-19.17.07-3.36 1.09-3.87 4.13-2.31a100.52 100.52 0 0023.86 9 95.59 95.59 0 0034 1.75 44.08 44.08 0 0014.29-4.26c10.05-5.14 13.87-14.13 13.2-24a16.22 16.22 0 00-4-9.37 32.66 32.66 0 00-8.46-6.94c-6.19-3.73-12.9-6.31-19.57-9-8.59-3.49-17.14-6.83-25.54-10.49a69.4 69.4 0 01-17.23-10.8c-7.35-6.27-12.46-14-13.77-23.62-1.85-13.56.5-26.15 9.95-36.69 5.41-6.06 12.33-9.86 19.91-12.54a84.3 84.3 0 0121-4.44c4.5-.39 8.96-.61 13.41-.91zM50.92 150h2.65l104 .07a29.87 29.87 0 013 .1 2.1 2.1 0 012.22 2.11 10.52 10.52 0 01.08 1.59v19.17c-.16 2.06-.79 2.67-2.87 2.75H27.18c-.8 0-1.6 0-2.39-.05a2.2 2.2 0 01-2.23-1.91 18.67 18.67 0 01-.27-3.17v-65.32l-2.49-1a47.66 47.66 0 01-18.1-12.8A5 5 0 010 88c.83.07 1.58.09 2.32.2 3 .47 6 1.09 9.07 1.42 9.3 1 18.38-.56 27.26-3 13.8-3.8 27.5-7.94 41.22-12a147 147 0 0130.92-6c10.71-.78 21.32-.28 31.55 3.49a43.74 43.74 0 0119.21 13.52c1.25 1.47 1.35 1.72 1.45 3.37-1 .49-1.94-.1-2.84-.38a50.28 50.28 0 00-18.56-2.1 105 105 0 00-18.28 3.23c-13 3.35-25.75 7.74-38.51 12A129.81 129.81 0 0158 107.78c-2.31.25-4.64.37-7.09.56zM379.84 105.46c-2.21-1-4.25-1.81-6.21-2.79a45.89 45.89 0 01-14.46-11.15 4.93 4.93 0 01-1.63-3.52c.82.08 1.58.1 2.33.21 3 .47 6 1.09 9.07 1.42 9.3 1 18.38-.57 27.26-3C409.55 82.92 422.82 79 436.09 75a152.11 152.11 0 0132.06-6.42c10.37-.79 20.66-.35 30.62 3.08A43.84 43.84 0 01519 85.44c.81 1 1.82 2 1.61 3.51-1.09.47-2-.12-2.92-.4a50.52 50.52 0 00-18.57-2.07 106 106 0 00-18.27 3.23c-12.92 3.32-25.5 7.67-38.14 11.87a131 131 0 01-27 6.18c-2.37.26-4.76.39-7.28.59v41.55c.83 0 1.66.13 2.5.13h106.61c2.25.15 2.72.66 2.82 3V173.2c-.14 1.86-.72 2.43-2.62 2.52H382.71a2.5 2.5 0 01-2.72-2.57 26.11 26.11 0 01-.08-2.8v-65zM242.38 150.11h93.45c1.13 0 2.27 0 3.4.12 1.6.16 2 .61 2.32 2.22a10.7 10.7 0 01.12 1.79v17.57c0 3.57-.47 4-4 4H218.22c-3.9 0-4.7-.84-4.7-4.9V51.5 7.37a23.46 23.46 0 01.19-2.78 2 2 0 011.82-1.83 14.5 14.5 0 012.18-.21H239.31c2.17.22 2.81.83 3 3 .09 1 .08 2 .08 3v141.56zM833.19 89.34V172.61a3 3 0 01-3.19 3.19h-22.2c-2.34-.13-3.22-.91-3.54-3.21a16 16 0 01-.13-2.19V8.09a16 16 0 01.13-2.19c.3-2.21 1.09-3 3.33-3.27a15.39 15.39 0 011.8-.06H828c4.31 0 5.19.86 5.19 5.1zM50.9 28v32.24a7.17 7.17 0 01-1.11 4 21.87 21.87 0 01-8.35 7.57 42.62 42.62 0 01-18.29 5.2 5 5 0 01-.75-.1 12 12 0 01-.16-1.48V6.24c.09-2.88.82-3.63 3.77-3.64h132.2a14.84 14.84 0 012.59.13 2.12 2.12 0 012 2.12 9.32 9.32 0 01.06 1.4V24.4a8.35 8.35 0 010 1c-.16 1.72-.75 2.34-2.49 2.52a25.07 25.07 0 01-2.6.06h-104zM408.46 28v2.73c0 9.79-.06 19.57 0 29.35a7.83 7.83 0 01-1.34 4.5 21.84 21.84 0 01-7.62 6.93 42 42 0 01-18.42 5.44 10 10 0 01-1.15-.09V7.37c0-4.27.44-4.7 4.67-4.7H516a17.13 17.13 0 012.58.18 1.92 1.92 0 011.76 1.88c.06.66.12 1.32.12 2V24.1c0 3.49-.52 4-4.11 4h-105z"/></svg>